<svg xmlns="http://www.w3.org/2000/svg" viewBox="0 0 1067 1600" width="1067" height="1600"><defs><linearGradient id="s" x1="0" y1="0" x2="0" y2="1"><stop offset="0" stop-color="#0c1118"/><stop offset="1" stop-color="#3d4f66"/></linearGradient>
<radialGradient id="g"><stop offset="0" stop-color="#ffa35c" stop-opacity=".55"/><stop offset="1" stop-color="#ffa35c" stop-opacity="0"/></radialGradient></defs>
<rect width="1067" height="1600" fill="url(#s)"/>
<circle cx="545" cy="605" r="256" fill="url(#g)"/>
<circle cx="545" cy="605" r="80" fill="#ffa35c"/>
<polygon points="0,1600 0,977 119,865 237,829 356,944 474,828 593,793 711,810 830,920 948,905 1067,922 1067,1600" fill="#1a2230" opacity="0.78"/><polygon points="0,1600 0,1152 119,1115 237,1161 356,1012 474,1029 593,1126 711,1065 830,1119 948,1131 1067,1164 1067,1600" fill="#131a25" opacity="0.85"/><polygon points="0,1600 0,1228 82,1159 164,1233 246,1181 328,1201 410,1202 492,1196 575,1181 657,1091 739,1210 821,1174 903,1225 985,1219 1067,1186 1067,1600" fill="#0d121a" opacity="0.92"/><polygon points="0,1600 0,1346 82,1379 164,1289 246,1324 328,1389 410,1330 492,1380 575,1333 657,1379 739,1357 821,1303 903,1288 985,1298 1067,1321 1067,1600" fill="#080b10" opacity="0.99"/><text x="534" y="224" text-anchor="middle" font-family="Arial,Helvetica,sans-serif" font-size="36" fill="#fff" fill-opacity=".6" letter-spacing="2.9">PLATZHALTER · UNTERNEHMEN 03</text></svg>
