<svg xmlns="http://www.w3.org/2000/svg" viewBox="0 0 1200 1500" width="1200" height="1500">
<defs><linearGradient id="s" x1="0" y1="0" x2="0" y2="1"><stop offset="0" stop-color="#1b1410"/><stop offset="1" stop-color="#ff7a2f"/></linearGradient>
<radialGradient id="g"><stop offset="0" stop-color="#ffd2a8" stop-opacity=".55"/><stop offset="1" stop-color="#ffd2a8" stop-opacity="0"/></radialGradient></defs>
<rect width="1200" height="1500" fill="url(#s)"/>
<circle cx="443" cy="647" r="326" fill="url(#g)"/>
<circle cx="443" cy="647" r="102" fill="#ffd2a8"/>
<polygon points="0,1500 0,847 171,851 343,734 514,723 686,896 857,774 1029,769 1200,929 1200,1500" fill="#2a1a12" opacity="0.75"/><polygon points="0,1500 0,970 133,1034 267,971 400,999 533,914 667,998 800,1039 933,979 1067,1017 1200,1005 1200,1500" fill="#1d130e" opacity="0.83"/><polygon points="0,1500 0,1065 109,1161 218,1138 327,1098 436,1060 545,1175 655,1121 764,1155 873,1177 982,1155 1091,1183 1200,1111 1200,1500" fill="#130d0a" opacity="0.91"/><polygon points="0,1500 0,1306 92,1269 185,1319 277,1314 369,1234 462,1238 554,1246 646,1322 738,1268 831,1288 923,1255 1015,1276 1108,1263 1200,1260 1200,1500" fill="#0b0807" opacity="0.99"/>

<text x="59" y="1441" font-family="Arial,Helvetica,sans-serif" font-size="42" fill="#fff" fill-opacity=".75" letter-spacing="3.4">PLATZHALTER · FOTO 01</text>
</svg>
