<svg xmlns="http://www.w3.org/2000/svg" viewBox="0 0 1500 1000" width="1500" height="1000">
<defs><linearGradient id="s" x1="0" y1="0" x2="0" y2="1"><stop offset="0" stop-color="#101012"/><stop offset="1" stop-color="#8a5a3c"/></linearGradient>
<radialGradient id="g"><stop offset="0" stop-color="#f6d6b8" stop-opacity=".55"/><stop offset="1" stop-color="#f6d6b8" stop-opacity="0"/></radialGradient></defs>
<rect width="1500" height="1000" fill="url(#s)"/>
<circle cx="909" cy="476" r="247" fill="url(#g)"/>
<circle cx="909" cy="476" r="77" fill="#f6d6b8"/>
<polygon points="0,1000 0,620 214,507 429,574 643,493 857,586 1071,501 1286,579 1500,581 1500,1000" fill="#2a1a12" opacity="0.75"/><polygon points="0,1000 0,681 167,643 333,692 500,707 667,605 833,652 1000,703 1167,678 1333,644 1500,627 1500,1000" fill="#1d130e" opacity="0.83"/><polygon points="0,1000 0,792 136,712 273,774 409,782 545,719 682,734 818,732 955,754 1091,738 1227,786 1364,789 1500,733 1500,1000" fill="#130d0a" opacity="0.91"/><polygon points="0,1000 0,877 115,821 231,823 346,861 462,870 577,872 692,883 808,874 923,834 1038,867 1154,879 1269,822 1385,850 1500,826 1500,1000" fill="#0b0807" opacity="0.99"/>

<text x="49" y="951" font-family="Arial,Helvetica,sans-serif" font-size="35" fill="#fff" fill-opacity=".75" letter-spacing="2.8">PLATZHALTER · FOTO 04</text>
</svg>
